<?xml version="1.0" standalone="no"?><svg xmlns="http://www.w3.org/2000/svg" viewBox="0 0 1440 320"><path fill="#FF6366" fill-opacity="1" d="M0,224L26.7,218.7C53.3,213,107,203,160,202.7C213.3,203,267,213,320,192C373.3,171,427,117,480,122.7C533.3,128,587,192,640,192C693.3,192,747,128,800,117.3C853.3,107,907,149,960,154.7C1013.3,160,1067,128,1120,128C1173.3,128,1227,160,1280,165.3C1333.3,171,1387,149,1413,138.7L1440,128L1440,320L1413.3,320C1386.7,320,1333,320,1280,320C1226.7,320,1173,320,1120,320C1066.7,320,1013,320,960,320C906.7,320,853,320,800,320C746.7,320,693,320,640,320C586.7,320,533,320,480,320C426.7,320,373,320,320,320C266.7,320,213,320,160,320C106.7,320,53,320,27,320L0,320Z"></path></svg>